<mxfile host="app.diagrams.net" modified="2023-11-03T21:31:51.040Z" agent="Mozilla/5.0 (Macintosh; Intel Mac OS X 10_15_7) AppleWebKit/537.36 (KHTML, like Gecko) Chrome/118.0.0.0 Safari/537.36" version="22.0.8" etag="TZu6--jHF1LKF1NJ8NkB" type="github">
  <diagram name="Page-1" id="sG4ieVGucT8uZtfDiHuL">
    <mxGraphModel>
      <root>
        <mxCell id="0" />
        <mxCell id="1" parent="0" />
      </root>
    </mxGraphModel>
  </diagram>
</mxfile>
